<?xml version="1.0" encoding="UTF-8"?>
<svg id="Layer_2" data-name="Layer 2" xmlns="http://www.w3.org/2000/svg" xmlns:xlink="http://www.w3.org/1999/xlink" viewBox="0 0 568.72 755.75">
  <defs>
    <style>
      .cls-1 {
        fill: url(#linear-gradient);
      }
    </style>
    <linearGradient id="linear-gradient" x1="240.35" y1="757.56" x2="371.82" y2="11.99" gradientUnits="userSpaceOnUse">
      <stop offset="0" stop-color="#ac40de"/>
      <stop offset=".75" stop-color="#f06e32"/>
    </linearGradient>
  </defs>
  <g id="Layer_1-2" data-name="Layer 1">
    <path class="cls-1" d="M167.45,52.4c-4.52-7.64-1.98-17.5,5.66-22.02l1.03-.61c4.02-2.35,8.18-4.61,12.34-6.69C217.03,7.77,249.97,0,284.37,0c58.37,0,113.26,22.74,154.57,64.02,33.74,33.74,55.12,76.42,61.84,123.42,1.26,8.79-4.85,16.93-13.64,18.19-.77.11-1.54.16-2.29.16-7.87,0-14.75-5.79-15.9-13.8-5.72-40.06-23.96-76.45-52.74-105.23-35.24-35.21-82.06-54.6-131.84-54.6-29.35,0-57.44,6.62-83.48,19.68-3.55,1.78-7.08,3.7-10.52,5.71l-.89.52c-7.64,4.52-17.5,1.98-22.02-5.66ZM538.09,313.77c-11.53-5.09-23.25-9.78-35.1-14.17v-49.36c0-8.88-7.2-16.08-16.08-16.08s-16.08,7.2-16.08,16.08v38.45c-13.87-4.3-27.9-8.15-42.05-11.49v-58.57c0-49.49-24.98-95.01-66.82-121.76-7.48-4.78-17.42-2.6-22.2,4.89-4.78,7.48-2.59,17.42,4.89,22.2,32.55,20.81,51.99,56.2,51.99,94.67v51.85c-36.69-6.69-73.91-10.18-110.93-10.26-.43,0-.86,0-1.3,0-37.49,0-75.19,3.48-112.33,10.26v-51.85c0-61.9,50.37-112.27,112.29-112.27,3.41,0,6.86.16,10.26.47,8.82.79,16.66-5.71,17.47-14.56s-5.71-16.66-14.56-17.47c-4.36-.4-8.79-.6-13.17-.6-79.65,0-144.45,64.79-144.45,144.42v58.57c-14.15,3.34-28.17,7.2-42.05,11.5v-70.07c0-46.38,17.14-90.84,48.26-125.18,5.96-6.58,5.46-16.75-1.12-22.71-6.58-5.96-16.74-5.46-22.71,1.12-36.49,40.26-56.59,92.39-56.59,146.77v80.98c-11.84,4.38-23.56,9.08-35.08,14.16-18.61,8.21-30.64,26.63-30.64,46.93v189.43c0,8.88,7.2,16.08,16.08,16.08s16.08-7.2,16.08-16.08v-189.43c0-7.57,4.5-14.44,11.47-17.51,75.37-33.26,158.59-50.82,240.78-50.82.41,0,.83,0,1.23,0,81.72.17,164.53,17.75,239.47,50.82,6.96,3.07,11.46,9.95,11.46,17.51v22.96c0,8.88,7.2,16.08,16.08,16.08s16.08-7.2,16.08-16.08v-22.96c0-20.29-12.02-38.71-30.63-46.93ZM552.64,428.36c-8.88,0-16.08,7.2-16.08,16.08v210.83c0,7.57-4.5,14.44-11.47,17.51-75.36,33.25-158.59,50.82-240.78,50.82-.41,0-.83,0-1.23,0-81.72-.17-164.53-17.75-239.47-50.82-6.96-3.07-11.46-9.95-11.46-17.51v-44.24c0-8.88-7.2-16.08-16.08-16.08s-16.08,7.2-16.08,16.08v44.24c0,20.29,12.02,38.71,30.63,46.93,78.97,34.85,166.24,53.37,252.38,53.55.43,0,.86,0,1.3,0,86.63,0,174.36-18.51,253.77-53.55,18.61-8.21,30.64-26.63,30.64-46.93v-210.83c0-8.88-7.2-16.08-16.08-16.08ZM110.94,396.32c7.76-2.72,15.65-5.28,23.46-7.62,8.51-2.55,13.34-11.51,10.79-20.01-2.55-8.51-11.52-13.34-20.01-10.79-8.28,2.48-16.65,5.2-24.88,8.08-15.61,5.48-26.1,20.31-26.1,36.91v210.18c0,16.6,10.49,31.44,26.09,36.91,59.34,20.81,120.87,31.43,182.88,31.56h1.21c22.25,0,44.78-1.38,66.96-4.11,8.81-1.08,15.08-9.11,13.99-17.92-1.08-8.81-9.11-15.08-17.92-13.99-20.88,2.57-42.09,3.87-63,3.87h-1.17c-58.4-.13-116.37-10.13-172.3-29.75-2.74-.96-4.58-3.6-4.58-6.57v-210.18c0-2.97,1.84-5.61,4.58-6.57ZM457.78,619.64c-15.56,5.46-31.6,10.26-47.67,14.25-8.62,2.14-13.86,10.86-11.72,19.48,1.82,7.32,8.38,12.2,15.59,12.2,1.28,0,2.59-.16,3.89-.48,17.04-4.24,34.05-9.32,50.56-15.12,15.61-5.48,26.1-20.31,26.1-36.91v-210.18c0-16.6-10.49-31.44-26.09-36.91-59.32-20.81-120.85-31.43-182.88-31.56h-1.18c-31.21,0-62.76,2.72-93.78,8.08-8.75,1.51-14.61,9.83-13.1,18.58,1.52,8.75,9.86,14.61,18.58,13.1,29.21-5.05,58.92-7.62,88.26-7.62h1.14c58.42.13,116.39,10.14,172.3,29.76,2.74.96,4.58,3.6,4.58,6.57v210.18c0,2.97-1.84,5.61-4.59,6.57ZM284.36,583.67c13.45,0,24.35-10.9,24.35-24.35v-51.42c10.36-7.54,17.11-19.75,17.11-33.54,0-22.89-18.56-41.45-41.45-41.45s-41.45,18.56-41.45,41.45c0,13.79,6.74,26.01,17.11,33.54v51.42c0,13.45,10.9,24.35,24.35,24.35Z"/>
  </g>
</svg>